<svg xmlns="http://www.w3.org/2000/svg" xmlns:xlink="http://www.w3.org/1999/xlink" width="387" zoomAndPan="magnify" viewBox="0 0 290.25 116.999995" height="156" preserveAspectRatio="xMidYMid meet" version="1.0"><defs><g/><clipPath id="fdaf30f8b3"><path d="M 53 12 L 108 12 L 108 68 L 53 68 Z M 53 12 " clip-rule="nonzero"/></clipPath><clipPath id="1d87a015db"><path d="M 48.511719 53.207031 L 83.941406 0.40625 L 118.726562 23.75 L 83.296875 76.550781 Z M 48.511719 53.207031 " clip-rule="nonzero"/></clipPath><clipPath id="fc15c17a6d"><path d="M 48.511719 53.207031 L 83.941406 0.40625 L 118.726562 23.75 L 83.296875 76.550781 Z M 48.511719 53.207031 " clip-rule="nonzero"/></clipPath><clipPath id="e5fd8186b1"><path d="M 55 13 L 107 13 L 107 66 L 55 66 Z M 55 13 " clip-rule="nonzero"/></clipPath><clipPath id="a99ef1c4c6"><path d="M 48.511719 53.207031 L 83.941406 0.40625 L 118.726562 23.75 L 83.296875 76.550781 Z M 48.511719 53.207031 " clip-rule="nonzero"/></clipPath><clipPath id="eec6312348"><path d="M 48.511719 53.207031 L 83.941406 0.40625 L 118.726562 23.75 L 83.296875 76.550781 Z M 48.511719 53.207031 " clip-rule="nonzero"/></clipPath><clipPath id="37d924893d"><path d="M 60 53 L 71 53 L 71 58 L 60 58 Z M 60 53 " clip-rule="nonzero"/></clipPath><clipPath id="0a6ccdcf19"><path d="M 48.511719 53.207031 L 83.941406 0.40625 L 118.726562 23.75 L 83.296875 76.550781 Z M 48.511719 53.207031 " clip-rule="nonzero"/></clipPath><clipPath id="97bdc12339"><path d="M 48.511719 53.207031 L 83.941406 0.40625 L 118.726562 23.75 L 83.296875 76.550781 Z M 48.511719 53.207031 " clip-rule="nonzero"/></clipPath><clipPath id="81e374b0db"><path d="M 75 25 L 85 25 L 85 37 L 75 37 Z M 75 25 " clip-rule="nonzero"/></clipPath><clipPath id="ea4f3f802d"><path d="M 48.511719 53.207031 L 83.941406 0.40625 L 118.726562 23.75 L 83.296875 76.550781 Z M 48.511719 53.207031 " clip-rule="nonzero"/></clipPath><clipPath id="9aa5471d6a"><path d="M 48.511719 53.207031 L 83.941406 0.40625 L 118.726562 23.75 L 83.296875 76.550781 Z M 48.511719 53.207031 " clip-rule="nonzero"/></clipPath><clipPath id="e73b732e06"><path d="M 75 22 L 106 22 L 106 49 L 75 49 Z M 75 22 " clip-rule="nonzero"/></clipPath><clipPath id="c407f82f4f"><path d="M 48.511719 53.207031 L 83.941406 0.40625 L 118.726562 23.75 L 83.296875 76.550781 Z M 48.511719 53.207031 " clip-rule="nonzero"/></clipPath><clipPath id="1f760acd63"><path d="M 48.511719 53.207031 L 83.941406 0.40625 L 118.726562 23.75 L 83.296875 76.550781 Z M 48.511719 53.207031 " clip-rule="nonzero"/></clipPath><clipPath id="4ec12f8b4a"><path d="M 67 33 L 81 33 L 81 40 L 67 40 Z M 67 33 " clip-rule="nonzero"/></clipPath><clipPath id="c4ef6324f1"><path d="M 48.511719 53.207031 L 83.941406 0.40625 L 118.726562 23.75 L 83.296875 76.550781 Z M 48.511719 53.207031 " clip-rule="nonzero"/></clipPath><clipPath id="2b29715023"><path d="M 48.511719 53.207031 L 83.941406 0.40625 L 118.726562 23.75 L 83.296875 76.550781 Z M 48.511719 53.207031 " clip-rule="nonzero"/></clipPath><clipPath id="607db965d7"><path d="M 95 34 L 99 34 L 99 40 L 95 40 Z M 95 34 " clip-rule="nonzero"/></clipPath><clipPath id="8806051972"><path d="M 48.511719 53.207031 L 83.941406 0.40625 L 118.726562 23.75 L 83.296875 76.550781 Z M 48.511719 53.207031 " clip-rule="nonzero"/></clipPath><clipPath id="14d6205107"><path d="M 48.511719 53.207031 L 83.941406 0.40625 L 118.726562 23.75 L 83.296875 76.550781 Z M 48.511719 53.207031 " clip-rule="nonzero"/></clipPath><clipPath id="6c0ad16630"><path d="M 82 26 L 100 26 L 100 42 L 82 42 Z M 82 26 " clip-rule="nonzero"/></clipPath><clipPath id="92f41556be"><path d="M 48.511719 53.207031 L 83.941406 0.40625 L 118.726562 23.75 L 83.296875 76.550781 Z M 48.511719 53.207031 " clip-rule="nonzero"/></clipPath><clipPath id="bdca28c9cc"><path d="M 48.511719 53.207031 L 83.941406 0.40625 L 118.726562 23.75 L 83.296875 76.550781 Z M 48.511719 53.207031 " clip-rule="nonzero"/></clipPath><clipPath id="845f07d5e0"><path d="M 75 40 L 88 40 L 88 50 L 75 50 Z M 75 40 " clip-rule="nonzero"/></clipPath><clipPath id="aede04d78a"><path d="M 48.511719 53.207031 L 83.941406 0.40625 L 118.726562 23.75 L 83.296875 76.550781 Z M 48.511719 53.207031 " clip-rule="nonzero"/></clipPath><clipPath id="12a84097f2"><path d="M 48.511719 53.207031 L 83.941406 0.40625 L 118.726562 23.75 L 83.296875 76.550781 Z M 48.511719 53.207031 " clip-rule="nonzero"/></clipPath><clipPath id="3c96066b47"><path d="M 66 54 L 72 54 L 72 58 L 66 58 Z M 66 54 " clip-rule="nonzero"/></clipPath><clipPath id="a6c7086856"><path d="M 48.511719 53.207031 L 83.941406 0.40625 L 118.726562 23.75 L 83.296875 76.550781 Z M 48.511719 53.207031 " clip-rule="nonzero"/></clipPath><clipPath id="5be55f8b82"><path d="M 48.511719 53.207031 L 83.941406 0.40625 L 118.726562 23.75 L 83.296875 76.550781 Z M 48.511719 53.207031 " clip-rule="nonzero"/></clipPath></defs><g fill="#ffffff" fill-opacity="1"><g transform="translate(75.6873, 81.965442)"><g><path d="M 21.953125 0.578125 C 18.054688 0.578125 14.570312 -0.195312 11.5 -1.75 C 8.425781 -3.3125 6.03125 -5.476562 4.3125 -8.25 C 2.601562 -11.019531 1.75 -14.15625 1.75 -17.65625 C 1.75 -21.164062 2.601562 -24.296875 4.3125 -27.046875 C 6.03125 -29.796875 8.425781 -31.9375 11.5 -33.46875 C 14.570312 -35.007812 18.054688 -35.78125 21.953125 -35.78125 C 25.929688 -35.78125 29.367188 -34.925781 32.265625 -33.21875 C 35.171875 -31.507812 37.226562 -29.140625 38.4375 -26.109375 L 28.890625 -21.234375 C 27.296875 -24.390625 24.960938 -25.96875 21.890625 -25.96875 C 19.679688 -25.96875 17.847656 -25.234375 16.390625 -23.765625 C 14.941406 -22.296875 14.21875 -20.257812 14.21875 -17.65625 C 14.21875 -15.019531 14.941406 -12.953125 16.390625 -11.453125 C 17.847656 -9.960938 19.679688 -9.21875 21.890625 -9.21875 C 24.960938 -9.21875 27.296875 -10.800781 28.890625 -13.96875 L 38.4375 -9.09375 C 37.226562 -6.0625 35.171875 -3.691406 32.265625 -1.984375 C 29.367188 -0.273438 25.929688 0.578125 21.953125 0.578125 Z M 21.953125 0.578125 "/></g></g></g><g fill="#ffffff" fill-opacity="1"><g transform="translate(109.904384, 81.965442)"><g><path d="M 26.890625 -35.78125 C 31.253906 -35.78125 34.769531 -34.476562 37.4375 -31.875 C 40.101562 -29.28125 41.4375 -25.363281 41.4375 -20.125 L 41.4375 0 L 29.09375 0 L 29.09375 -18.125 C 29.09375 -22.925781 27.164062 -25.328125 23.3125 -25.328125 C 21.1875 -25.328125 19.484375 -24.632812 18.203125 -23.25 C 16.929688 -21.863281 16.296875 -19.785156 16.296875 -17.015625 L 16.296875 0 L 3.96875 0 L 3.96875 -48.1875 L 16.296875 -48.1875 L 16.296875 -31.953125 C 17.640625 -33.203125 19.21875 -34.148438 21.03125 -34.796875 C 22.851562 -35.453125 24.804688 -35.78125 26.890625 -35.78125 Z M 26.890625 -35.78125 "/></g></g></g><g fill="#ffffff" fill-opacity="1"><g transform="translate(150.15995, 81.965442)"><g><path d="M 39.9375 -17.53125 C 39.9375 -17.445312 39.867188 -16.429688 39.734375 -14.484375 L 14.15625 -14.484375 C 14.675781 -12.660156 15.679688 -11.257812 17.171875 -10.28125 C 18.671875 -9.3125 20.546875 -8.828125 22.796875 -8.828125 C 24.484375 -8.828125 25.941406 -9.066406 27.171875 -9.546875 C 28.410156 -10.023438 29.65625 -10.804688 30.90625 -11.890625 L 37.40625 -5.125 C 33.988281 -1.320312 28.988281 0.578125 22.40625 0.578125 C 18.289062 0.578125 14.675781 -0.195312 11.5625 -1.75 C 8.445312 -3.3125 6.03125 -5.476562 4.3125 -8.25 C 2.601562 -11.019531 1.75 -14.15625 1.75 -17.65625 C 1.75 -21.125 2.582031 -24.234375 4.25 -26.984375 C 5.914062 -29.734375 8.21875 -31.882812 11.15625 -33.4375 C 14.101562 -35 17.421875 -35.78125 21.109375 -35.78125 C 24.609375 -35.78125 27.785156 -35.054688 30.640625 -33.609375 C 33.503906 -32.160156 35.769531 -30.0625 37.4375 -27.3125 C 39.101562 -24.5625 39.9375 -21.300781 39.9375 -17.53125 Z M 21.171875 -27.015625 C 19.265625 -27.015625 17.671875 -26.472656 16.390625 -25.390625 C 15.117188 -24.304688 14.3125 -22.832031 13.96875 -20.96875 L 28.375 -20.96875 C 28.03125 -22.832031 27.21875 -24.304688 25.9375 -25.390625 C 24.664062 -26.472656 23.078125 -27.015625 21.171875 -27.015625 Z M 21.171875 -27.015625 "/></g></g></g><g fill="#ffffff" fill-opacity="1"><g transform="translate(186.9093, 81.965442)"><g><path d="M 17.40625 -33.890625 L 25.78125 -33.890625 L 25.78125 -24.671875 L 17.734375 -24.671875 L 17.734375 0 L 5.390625 0 L 5.390625 -24.671875 L 0.265625 -24.671875 L 0.265625 -33.890625 L 5.390625 -33.890625 L 5.390625 -34.8125 C 5.390625 -39.09375 6.675781 -42.488281 9.25 -45 C 11.832031 -47.507812 15.4375 -48.765625 20.0625 -48.765625 C 21.625 -48.765625 23.140625 -48.613281 24.609375 -48.3125 C 26.078125 -48.007812 27.289062 -47.554688 28.25 -46.953125 L 25.203125 -38.25 C 23.984375 -38.9375 22.75 -39.28125 21.5 -39.28125 C 20.195312 -39.28125 19.1875 -38.890625 18.46875 -38.109375 C 17.757812 -37.335938 17.40625 -36.191406 17.40625 -34.671875 Z M 17.40625 -33.890625 "/></g></g></g><g clip-path="url(#fdaf30f8b3)"><g clip-path="url(#1d87a015db)"><g clip-path="url(#fc15c17a6d)"><path fill="#1b2123" d="M 103.445312 45.574219 C 96.730469 48.351562 89.820312 52.796875 83.996094 58.089844 C 81.097656 60.722656 78.539062 63.496094 76.386719 66.332031 L 75.289062 67.78125 L 70.71875 57.542969 C 68.699219 58.902344 64.257812 61.261719 59.519531 59.777344 C 57.226562 59.054688 55.699219 57.894531 54.851562 56.222656 C 53.738281 54.03125 52.25 47.675781 58.277344 42.652344 C 62.6875 38.648438 69.675781 37.71875 71.128906 37.566406 C 71.605469 37.265625 72.039062 36.941406 72.445312 36.570312 C 74.074219 35.089844 75.046875 33.097656 76.171875 30.789062 C 77.777344 27.496094 79.777344 23.398438 84.527344 19.082031 C 85.113281 18.550781 85.734375 18.023438 86.378906 17.507812 C 91.996094 13.003906 96.484375 11.378906 100.105469 12.535156 C 101.707031 13.050781 105.871094 15.875 107.355469 21.230469 C 108.207031 24.0625 107.300781 27.070312 105.691406 30.085938 C 104.933594 31.507812 103.464844 33.714844 100.796875 36.136719 C 100.066406 36.800781 99.410156 37.332031 98.910156 37.714844 L 104.757812 45.03125 Z M 103.445312 45.574219 " fill-opacity="1" fill-rule="nonzero"/></g></g></g><g clip-path="url(#e5fd8186b1)"><g clip-path="url(#a99ef1c4c6)"><g clip-path="url(#eec6312348)"><path fill="#ffffff" d="M 105.800781 21.570312 C 106.726562 24.648438 105.90625 27.566406 104.476562 30.042969 C 101.90625 34.476562 97.363281 37.496094 97.363281 37.496094 L 103.023438 44.574219 C 100.421875 45.648438 97.800781 46.964844 95.226562 48.480469 C 87.71875 52.890625 80.59375 58.984375 75.527344 65.671875 L 71.152344 55.875 C 71.152344 55.875 65.644531 60.570312 59.832031 58.746094 C 56.136719 57.585938 53.976562 53.714844 55.847656 47.769531 C 58.601562 39.882812 71.492188 38.617188 71.492188 38.617188 C 77.914062 34.808594 76.203125 27.054688 87.058594 18.355469 C 97.878906 9.679688 103.214844 12.972656 105.800781 21.570312 Z M 105.800781 21.570312 " fill-opacity="1" fill-rule="nonzero"/></g></g></g><g clip-path="url(#37d924893d)"><g clip-path="url(#0a6ccdcf19)"><g clip-path="url(#97bdc12339)"><path fill="#ffffff" d="M 70.484375 56.046875 C 70.484375 56.046875 66.09375 58.242188 63.5 57.972656 C 60.84375 57.695312 59.800781 56.484375 60.3125 56.441406 C 60.824219 56.394531 63.351562 57.191406 64.496094 56.011719 C 65.640625 54.832031 62.675781 54.011719 64.082031 53.578125 C 65.488281 53.140625 67.519531 53.546875 68.804688 54.203125 C 70.09375 54.855469 70.484375 56.046875 70.484375 56.046875 Z M 70.484375 56.046875 " fill-opacity="1" fill-rule="nonzero"/></g></g></g><g clip-path="url(#81e374b0db)"><g clip-path="url(#ea4f3f802d)"><g clip-path="url(#9aa5471d6a)"><path fill="#ffffff" d="M 75.148438 36.660156 C 75.148438 36.660156 77.976562 34.699219 79.890625 30.90625 C 81.804688 27.109375 83.582031 24.761719 84.386719 25.644531 C 85.191406 26.53125 85.25 28.828125 82.28125 32.261719 C 79.3125 35.691406 75.148438 36.660156 75.148438 36.660156 Z M 75.148438 36.660156 " fill-opacity="1" fill-rule="nonzero"/></g></g></g><g clip-path="url(#e73b732e06)"><g clip-path="url(#c407f82f4f)"><g clip-path="url(#1f760acd63)"><path fill="#ffffff" d="M 105.03125 26.242188 C 105.019531 26.328125 104.71875 28.582031 104.476562 30.042969 C 101.90625 34.480469 97.363281 37.5 97.363281 37.5 L 103.023438 44.574219 C 100.421875 45.652344 97.800781 46.964844 95.226562 48.480469 C 95.644531 47.617188 95.753906 46.527344 95.136719 45.203125 C 93.296875 41.257812 91.3125 39.5 91.3125 39.5 C 91.3125 39.5 89.039062 44.730469 85.863281 46.824219 C 82.714844 48.898438 75.828125 48.132812 75.722656 48.121094 C 75.78125 48.085938 79 46.328125 80.492188 44.777344 C 81.996094 43.210938 81.996094 43.210938 81.996094 43.210938 C 79.53125 42.261719 77.253906 41.289062 78.628906 39.9375 C 78.628906 39.9375 86.410156 40.980469 92.597656 33.183594 C 98.785156 25.382812 96.554688 22.070312 99.511719 22.746094 C 102.46875 23.421875 100.835938 30.648438 102.519531 29.710938 C 104.175781 28.789062 105.003906 26.332031 105.03125 26.242188 Z M 105.03125 26.242188 " fill-opacity="1" fill-rule="nonzero"/></g></g></g><g clip-path="url(#4ec12f8b4a)"><g clip-path="url(#c4ef6324f1)"><g clip-path="url(#2b29715023)"><path fill="#1b2123" d="M 67.804688 39.160156 C 67.804688 39.160156 72.132812 39 75.523438 37.726562 C 78.917969 36.449219 80.496094 33.609375 80.496094 33.609375 C 80.496094 33.609375 77.484375 35.742188 75.148438 36.660156 C 72.816406 37.578125 72.289062 37.652344 72.289062 37.652344 Z M 67.804688 39.160156 " fill-opacity="1" fill-rule="nonzero"/></g></g></g><g clip-path="url(#607db965d7)"><g clip-path="url(#8806051972)"><g clip-path="url(#14d6205107)"><path fill="#1b2123" d="M 95.589844 34.433594 C 95.675781 35.128906 97.355469 37.441406 98.683594 39.136719 L 98.910156 37.714844 C 97.914062 36.527344 97.089844 35.457031 96.410156 34.476562 Z M 95.589844 34.433594 " fill-opacity="1" fill-rule="nonzero"/></g></g></g><g clip-path="url(#6c0ad16630)"><g clip-path="url(#92f41556be)"><g clip-path="url(#bdca28c9cc)"><path fill="#1b2123" d="M 99.867188 26.269531 C 99.867188 26.269531 100.03125 30.757812 93.832031 35.734375 C 87.628906 40.707031 82.363281 41.515625 82.363281 41.515625 C 82.363281 41.515625 87.839844 41.699219 93.835938 37.515625 C 97.546875 34.804688 96.5625 35.515625 98.378906 33.042969 C 100.195312 30.570312 99.867188 26.269531 99.867188 26.269531 Z M 99.867188 26.269531 " fill-opacity="1" fill-rule="nonzero"/></g></g></g><g clip-path="url(#845f07d5e0)"><g clip-path="url(#aede04d78a)"><g clip-path="url(#12a84097f2)"><path fill="#1b2123" d="M 85.671875 40.847656 C 84.402344 44.445312 80.046875 48.117188 75.359375 49.0625 C 75.359375 49.0625 77.203125 49.675781 81.289062 47.601562 C 85.375 45.527344 87.722656 40.121094 87.722656 40.121094 Z M 85.671875 40.847656 " fill-opacity="1" fill-rule="nonzero"/></g></g></g><g clip-path="url(#3c96066b47)"><g clip-path="url(#a6c7086856)"><g clip-path="url(#5be55f8b82)"><path fill="#1b2123" d="M 71.609375 57.195312 C 71.558594 56.878906 71.347656 55.863281 70.6875 55.136719 C 70.027344 54.410156 66.28125 54.078125 66.28125 54.078125 C 66.28125 54.078125 68.753906 54.96875 69.542969 55.578125 C 70.332031 56.183594 70.722656 57.542969 70.722656 57.542969 Z M 71.609375 57.195312 " fill-opacity="1" fill-rule="nonzero"/></g></g></g></svg>