<svg xmlns="http://www.w3.org/2000/svg" xmlns:xlink="http://www.w3.org/1999/xlink" width="387" zoomAndPan="magnify" viewBox="0 0 290.25 116.999995" height="156" preserveAspectRatio="xMidYMid meet" version="1.0">
    <defs>
        <g/>
        <clipPath id="a03a50d875"><path d="M 0 0.152344 L 289.5 0.152344 L 289.5 116.847656 L 0 116.847656 Z M 0 0.152344 " clip-rule="nonzero"/></clipPath>
        <clipPath id="17bcc70a2a"><path d="M 103 12 L 158 12 L 158 68 L 103 68 Z M 103 12 " clip-rule="nonzero"/></clipPath>
        <clipPath id="4fa8f67023"><path d="M 98.59375 53.207031 L 134.023438 0.40625 L 168.8125 23.75 L 133.382812 76.550781 Z M 98.59375 53.207031 " clip-rule="nonzero"/></clipPath>
        <clipPath id="97abbb43d2"><path d="M 98.59375 53.207031 L 134.023438 0.40625 L 168.8125 23.75 L 133.382812 76.550781 Z M 98.59375 53.207031 " clip-rule="nonzero"/></clipPath>
        <clipPath id="bc1106dbc1"><path d="M 105 13 L 157 13 L 157 66 L 105 66 Z M 105 13 " clip-rule="nonzero"/></clipPath>
        <clipPath id="4d6b539c76"><path d="M 98.59375 53.207031 L 134.023438 0.40625 L 168.8125 23.75 L 133.382812 76.550781 Z M 98.59375 53.207031 " clip-rule="nonzero"/></clipPath>
        <clipPath id="92da09ca45"><path d="M 98.59375 53.207031 L 134.023438 0.40625 L 168.8125 23.75 L 133.382812 76.550781 Z M 98.59375 53.207031 " clip-rule="nonzero"/></clipPath>
        <clipPath id="83660ce320"><path d="M 110 53 L 121 53 L 121 58 L 110 58 Z M 110 53 " clip-rule="nonzero"/></clipPath>
        <clipPath id="1ad63a74b5"><path d="M 98.59375 53.207031 L 134.023438 0.40625 L 168.8125 23.75 L 133.382812 76.550781 Z M 98.59375 53.207031 " clip-rule="nonzero"/></clipPath>
        <clipPath id="ed2f29100f"><path d="M 98.59375 53.207031 L 134.023438 0.40625 L 168.8125 23.75 L 133.382812 76.550781 Z M 98.59375 53.207031 " clip-rule="nonzero"/></clipPath>
        <clipPath id="4cc85f9a76"><path d="M 125 25 L 135 25 L 135 37 L 125 37 Z M 125 25 " clip-rule="nonzero"/></clipPath>
        <clipPath id="f1408f3b24"><path d="M 98.59375 53.207031 L 134.023438 0.40625 L 168.8125 23.75 L 133.382812 76.550781 Z M 98.59375 53.207031 " clip-rule="nonzero"/></clipPath>
        <clipPath id="4bb2379b5a"><path d="M 98.59375 53.207031 L 134.023438 0.40625 L 168.8125 23.75 L 133.382812 76.550781 Z M 98.59375 53.207031 " clip-rule="nonzero"/></clipPath>
        <clipPath id="247239ca14"><path d="M 125 22 L 156 22 L 156 49 L 125 49 Z M 125 22 " clip-rule="nonzero"/></clipPath>
        <clipPath id="7a624930a5"><path d="M 98.59375 53.207031 L 134.023438 0.40625 L 168.8125 23.75 L 133.382812 76.550781 Z M 98.59375 53.207031 " clip-rule="nonzero"/></clipPath>
        <clipPath id="962943a7af"><path d="M 98.59375 53.207031 L 134.023438 0.40625 L 168.8125 23.75 L 133.382812 76.550781 Z M 98.59375 53.207031 " clip-rule="nonzero"/></clipPath>
        <clipPath id="dee7a3cb79"><path d="M 117 33 L 131 33 L 131 40 L 117 40 Z M 117 33 " clip-rule="nonzero"/></clipPath>
        <clipPath id="6ddbf00ba0"><path d="M 98.59375 53.207031 L 134.023438 0.40625 L 168.8125 23.75 L 133.382812 76.550781 Z M 98.59375 53.207031 " clip-rule="nonzero"/></clipPath>
        <clipPath id="08691a052e"><path d="M 98.59375 53.207031 L 134.023438 0.40625 L 168.8125 23.75 L 133.382812 76.550781 Z M 98.59375 53.207031 " clip-rule="nonzero"/></clipPath>
        <clipPath id="b45cbb9a30"><path d="M 145 34 L 149 34 L 149 40 L 145 40 Z M 145 34 " clip-rule="nonzero"/></clipPath>
        <clipPath id="3030cf04ef"><path d="M 98.59375 53.207031 L 134.023438 0.40625 L 168.8125 23.75 L 133.382812 76.550781 Z M 98.59375 53.207031 " clip-rule="nonzero"/></clipPath>
        <clipPath id="2949879b39"><path d="M 98.59375 53.207031 L 134.023438 0.40625 L 168.8125 23.75 L 133.382812 76.550781 Z M 98.59375 53.207031 " clip-rule="nonzero"/></clipPath>
        <clipPath id="ac6ee6cfad"><path d="M 132 26 L 150 26 L 150 42 L 132 42 Z M 132 26 " clip-rule="nonzero"/></clipPath>
        <clipPath id="59f20c4749"><path d="M 98.59375 53.207031 L 134.023438 0.40625 L 168.8125 23.75 L 133.382812 76.550781 Z M 98.59375 53.207031 " clip-rule="nonzero"/></clipPath>
        <clipPath id="ce9d33f3b7"><path d="M 98.59375 53.207031 L 134.023438 0.40625 L 168.8125 23.75 L 133.382812 76.550781 Z M 98.59375 53.207031 " clip-rule="nonzero"/></clipPath>
        <clipPath id="1515387171"><path d="M 125 40 L 138 40 L 138 50 L 125 50 Z M 125 40 " clip-rule="nonzero"/></clipPath>
        <clipPath id="05f82e4963"><path d="M 98.59375 53.207031 L 134.023438 0.40625 L 168.8125 23.75 L 133.382812 76.550781 Z M 98.59375 53.207031 " clip-rule="nonzero"/></clipPath>
        <clipPath id="f76905edfc"><path d="M 98.59375 53.207031 L 134.023438 0.40625 L 168.8125 23.75 L 133.382812 76.550781 Z M 98.59375 53.207031 " clip-rule="nonzero"/></clipPath>
        <clipPath id="2eb48aaf12"><path d="M 116 54 L 122 54 L 122 58 L 116 58 Z M 116 54 " clip-rule="nonzero"/></clipPath>
        <clipPath id="2eaac0047c"><path d="M 98.59375 53.207031 L 134.023438 0.40625 L 168.8125 23.75 L 133.382812 76.550781 Z M 98.59375 53.207031 " clip-rule="nonzero"/></clipPath>
        <clipPath id="81139e5d78"><path d="M 98.59375 53.207031 L 134.023438 0.40625 L 168.8125 23.75 L 133.382812 76.550781 Z M 98.59375 53.207031 " clip-rule="nonzero"/></clipPath>
    </defs>
    <g clip-path="url(#a03a50d875)"></g>
    <g fill="#ffffff" fill-opacity="1">
        <g transform="translate(124.90777, 81.432631)">
            <g>
                <path d="M 21.953125 0.578125 C 18.054688 0.578125 14.570312 -0.195312 11.5 -1.75 C 8.425781 -3.3125 6.03125 -5.476562 4.3125 -8.25 C 2.601562 -11.019531 1.75 -14.15625 1.75 -17.65625 C 1.75 -21.164062 2.601562 -24.296875 4.3125 -27.046875 C 6.03125 -29.796875 8.425781 -31.9375 11.5 -33.46875 C 14.570312 -35.007812 18.054688 -35.78125 21.953125 -35.78125 C 25.929688 -35.78125 29.367188 -34.925781 32.265625 -33.21875 C 35.171875 -31.507812 37.226562 -29.140625 38.4375 -26.109375 L 28.890625 -21.234375 C 27.296875 -24.390625 24.960938 -25.96875 21.890625 -25.96875 C 19.679688 -25.96875 17.847656 -25.234375 16.390625 -23.765625 C 14.941406 -22.296875 14.21875 -20.257812 14.21875 -17.65625 C 14.21875 -15.019531 14.941406 -12.953125 16.390625 -11.453125 C 17.847656 -9.960938 19.679688 -9.21875 21.890625 -9.21875 C 24.960938 -9.21875 27.296875 -10.800781 28.890625 -13.96875 L 38.4375 -9.09375 C 37.226562 -6.0625 35.171875 -3.691406 32.265625 -1.984375 C 29.367188 -0.273438 25.929688 0.578125 21.953125 0.578125 Z M 21.953125 0.578125 "/>
            </g>
        </g>
    </g>
        <g clip-path="url(#17bcc70a2a)">
            <g clip-path="url(#4fa8f67023)">
                <g clip-path="url(#97abbb43d2)">
                    <path fill="#1b2123" d="M 153.53125 45.574219 C 146.8125 48.351562 139.90625 52.796875 134.082031 58.089844 C 131.183594 60.722656 128.621094 63.496094 126.472656 66.332031 L 125.375 67.78125 L 120.804688 57.542969 C 118.78125 58.902344 114.339844 61.261719 109.605469 59.777344 C 107.308594 59.054688 105.78125 57.894531 104.933594 56.222656 C 103.824219 54.03125 102.332031 47.675781 108.363281 42.652344 C 112.773438 38.648438 119.761719 37.71875 121.214844 37.566406 C 121.691406 37.265625 122.121094 36.941406 122.527344 36.570312 C 124.160156 35.089844 125.132812 33.097656 126.257812 30.789062 C 127.863281 27.496094 129.863281 23.398438 134.613281 19.082031 C 135.199219 18.550781 135.820312 18.023438 136.460938 17.507812 C 142.078125 13.003906 146.570312 11.378906 150.1875 12.535156 C 151.792969 13.050781 155.953125 15.875 157.4375 21.230469 C 158.292969 24.0625 157.386719 27.070312 155.777344 30.085938 C 155.015625 31.507812 153.550781 33.714844 150.882812 36.136719 C 150.152344 36.800781 149.492188 37.332031 148.996094 37.714844 L 154.84375 45.03125 Z M 153.53125 45.574219 " fill-opacity="1" fill-rule="nonzero"/>
                </g>
            </g>
        </g>
        <g clip-path="url(#bc1106dbc1)">
            <g clip-path="url(#4d6b539c76)">
                <g clip-path="url(#92da09ca45)">
                    <path fill="#ffffff" d="M 155.886719 21.570312 C 156.8125 24.648438 155.992188 27.566406 154.558594 30.042969 C 151.988281 34.476562 147.449219 37.496094 147.449219 37.496094 L 153.105469 44.574219 C 150.507812 45.648438 147.886719 46.964844 145.3125 48.480469 C 137.800781 52.890625 130.679688 58.984375 125.609375 65.671875 L 121.234375 55.875 C 121.234375 55.875 115.726562 60.570312 109.914062 58.746094 C 106.222656 57.585938 104.058594 53.714844 105.929688 47.769531 C 108.6875 39.882812 121.574219 38.617188 121.574219 38.617188 C 127.996094 34.808594 126.285156 27.054688 137.144531 18.355469 C 147.964844 9.679688 153.300781 12.972656 155.886719 21.570312 Z M 155.886719 21.570312 " fill-opacity="1" fill-rule="nonzero"/>
                </g>
            </g>
        </g>
        <g clip-path="url(#83660ce320)">
            <g clip-path="url(#1ad63a74b5)">
                <g clip-path="url(#ed2f29100f)">
                    <path fill="#ffffff" d="M 120.566406 56.046875 C 120.566406 56.046875 116.175781 58.242188 113.582031 57.972656 C 110.925781 57.695312 109.882812 56.484375 110.398438 56.441406 C 110.910156 56.394531 113.433594 57.191406 114.578125 56.011719 C 115.722656 54.832031 112.761719 54.011719 114.167969 53.578125 C 115.574219 53.140625 117.601562 53.546875 118.890625 54.203125 C 120.179688 54.855469 120.566406 56.046875 120.566406 56.046875 Z M 120.566406 56.046875 " fill-opacity="1" fill-rule="nonzero"/>
                </g>
            </g>
        </g>
        <g clip-path="url(#4cc85f9a76)">
            <g clip-path="url(#f1408f3b24)">
                <g clip-path="url(#4bb2379b5a)">
                    <path fill="#ffffff" d="M 125.234375 36.660156 C 125.234375 36.660156 128.0625 34.699219 129.972656 30.90625 C 131.886719 27.109375 133.664062 24.761719 134.46875 25.644531 C 135.273438 26.53125 135.332031 28.828125 132.363281 32.261719 C 129.394531 35.691406 125.234375 36.660156 125.234375 36.660156 Z M 125.234375 36.660156 " fill-opacity="1" fill-rule="nonzero"/>
                </g>
            </g>
        </g>
        <g clip-path="url(#247239ca14)">
            <g clip-path="url(#7a624930a5)">
                <g clip-path="url(#962943a7af)">
                    <path fill="#ffffff" d="M 155.113281 26.242188 C 155.105469 26.328125 154.804688 28.582031 154.558594 30.042969 C 151.988281 34.480469 147.449219 37.5 147.449219 37.5 L 153.105469 44.574219 C 150.507812 45.652344 147.886719 46.964844 145.3125 48.480469 C 145.730469 47.617188 145.839844 46.527344 145.21875 45.203125 C 143.382812 41.257812 141.394531 39.5 141.394531 39.5 C 141.394531 39.5 139.121094 44.730469 135.949219 46.824219 C 132.796875 48.898438 125.914062 48.132812 125.804688 48.121094 C 125.867188 48.085938 129.082031 46.328125 130.574219 44.777344 C 132.082031 43.210938 132.082031 43.210938 132.082031 43.210938 C 129.617188 42.261719 127.339844 41.289062 128.714844 39.9375 C 128.714844 39.9375 136.496094 40.980469 142.683594 33.183594 C 148.871094 25.382812 146.636719 22.070312 149.597656 22.746094 C 152.554688 23.421875 150.917969 30.648438 152.605469 29.710938 C 154.261719 28.789062 155.085938 26.332031 155.113281 26.242188 Z M 155.113281 26.242188 " fill-opacity="1" fill-rule="nonzero"/>
                </g>
            </g>
        </g>
        <g clip-path="url(#dee7a3cb79)">
            <g clip-path="url(#6ddbf00ba0)">
                <g clip-path="url(#08691a052e)">
                    <path fill="#1b2123" d="M 117.886719 39.160156 C 117.886719 39.160156 122.214844 39 125.609375 37.726562 C 129 36.449219 130.578125 33.609375 130.578125 33.609375 C 130.578125 33.609375 127.570312 35.742188 125.234375 36.660156 C 122.898438 37.578125 122.375 37.652344 122.375 37.652344 Z M 117.886719 39.160156 " fill-opacity="1" fill-rule="nonzero"/>
                </g>
            </g>
        </g>
        <g clip-path="url(#b45cbb9a30)">
            <g clip-path="url(#3030cf04ef)">
                <g clip-path="url(#2949879b39)">
                    <path fill="#1b2123" d="M 145.675781 34.433594 C 145.761719 35.128906 147.441406 37.441406 148.765625 39.136719 L 148.996094 37.714844 C 148 36.527344 147.175781 35.457031 146.496094 34.476562 Z M 145.675781 34.433594 " fill-opacity="1" fill-rule="nonzero"/>
                </g>
            </g>
        </g>
        <g clip-path="url(#ac6ee6cfad)">
            <g clip-path="url(#59f20c4749)">
                <g clip-path="url(#ce9d33f3b7)">
                    <path fill="#1b2123" d="M 149.953125 26.269531 C 149.953125 26.269531 150.117188 30.757812 143.914062 35.734375 C 137.714844 40.707031 132.445312 41.515625 132.445312 41.515625 C 132.445312 41.515625 137.921875 41.699219 143.921875 37.515625 C 147.632812 34.804688 146.648438 35.515625 148.460938 33.042969 C 150.277344 30.570312 149.953125 26.269531 149.953125 26.269531 Z M 149.953125 26.269531 " fill-opacity="1" fill-rule="nonzero"/>
                </g>
            </g>
        </g>
        <g clip-path="url(#1515387171)">
            <g clip-path="url(#05f82e4963)">
                <g clip-path="url(#f76905edfc)">
                    <path fill="#1b2123" d="M 135.757812 40.847656 C 134.484375 44.445312 130.132812 48.117188 125.441406 49.0625 C 125.441406 49.0625 127.289062 49.675781 131.375 47.601562 C 135.457031 45.527344 137.808594 40.121094 137.808594 40.121094 Z M 135.757812 40.847656 " fill-opacity="1" fill-rule="nonzero"/>
                </g>
            </g>
        </g>
        <g clip-path="url(#2eb48aaf12)">
            <g clip-path="url(#2eaac0047c)">
                <g clip-path="url(#81139e5d78)">
                    <path fill="#1b2123" d="M 121.691406 57.195312 C 121.640625 56.878906 121.433594 55.863281 120.773438 55.136719 C 120.113281 54.410156 116.363281 54.078125 116.363281 54.078125 C 116.363281 54.078125 118.835938 54.96875 119.625 55.578125 C 120.417969 56.183594 120.804688 57.542969 120.804688 57.542969 Z M 121.691406 57.195312 " fill-opacity="1" fill-rule="nonzero"/>
                </g>
            </g>
        </g>
</svg>