<svg xmlns="http://www.w3.org/2000/svg" xmlns:xlink="http://www.w3.org/1999/xlink" width="249" zoomAndPan="magnify" viewBox="0 0 186.75 155.999997" height="208" preserveAspectRatio="xMidYMid meet" version="1.0"><defs><g/><clipPath id="c98f780329"><path d="M 45.160156 0.105469 L 141 0.105469 L 141 85 L 45.160156 85 Z M 45.160156 0.105469 " clip-rule="nonzero"/></clipPath><clipPath id="041c24c7b4"><path d="M 62 86 L 124 86 L 124 103.464844 L 62 103.464844 Z M 62 86 " clip-rule="nonzero"/></clipPath></defs><g clip-path="url(#c98f780329)"><path fill="#ffffff" d="M 120.964844 53.117188 C 119.566406 57.617188 118.839844 61.921875 118.804688 66.007812 C 118.769531 70.519531 119.566406 74.800781 121.210938 78.863281 L 123.484375 84.472656 L 117.582031 83.097656 C 109.519531 81.207031 101.261719 80.285156 92.828125 80.34375 C 84.355469 80.390625 75.664062 81.417969 66.753906 83.410156 L 61.910156 84.496094 L 63.007812 79.65625 C 64.128906 74.730469 64.664062 69.890625 64.617188 65.097656 C 64.535156 57.410156 61.410156 53.3125 64.816406 47.117188 C 59.238281 46.265625 54.738281 43.96875 51.457031 40.9375 C 48.449219 38.148438 46.464844 34.742188 45.625 31.230469 C 44.75 27.589844 45.089844 23.84375 46.769531 20.554688 C 49.382812 15.398438 55.15625 11.433594 64.488281 10.941406 C 69.609375 4.761719 75.1875 1.226562 81.230469 0.339844 C 87.191406 -0.535156 93.421875 1.203125 99.882812 5.554688 C 103.875 4.09375 107.546875 3.734375 110.910156 4.480469 C 114.410156 5.261719 117.429688 7.1875 119.972656 10.253906 C 120.988281 10.335938 121.96875 10.453125 122.925781 10.605469 C 128.96875 11.539062 133.503906 13.800781 136.515625 17.382812 C 139.558594 21 140.9375 25.78125 140.632812 31.730469 C 140.574219 32.980469 140.433594 34.296875 140.214844 35.6875 L 140.15625 36 C 138.882812 40.785156 136.445312 44.65625 132.828125 47.621094 C 129.714844 50.164062 125.757812 51.996094 120.976562 53.117188 Z M 112.53125 65.960938 C 112.578125 60.6875 113.589844 55.15625 115.585938 49.394531 L 116.179688 47.667969 L 117.988281 47.328125 C 122.539062 46.476562 126.15625 44.960938 128.839844 42.757812 C 131.382812 40.667969 133.121094 37.925781 134.042969 34.519531 C 134.207031 33.457031 134.296875 32.433594 134.355469 31.441406 C 134.566406 27.113281 133.691406 23.765625 131.707031 21.417969 C 129.703125 19.039062 126.460938 17.5 121.957031 16.800781 C 120.800781 16.625 119.554688 16.496094 118.199219 16.425781 L 116.683594 16.355469 L 115.808594 15.144531 C 114 12.644531 111.910156 11.140625 109.554688 10.617188 C 107.082031 10.066406 104.128906 10.523438 100.722656 11.992188 L 99.089844 12.691406 L 97.632812 11.632812 C 92.03125 7.546875 86.875 5.855469 82.128906 6.558594 C 77.378906 7.257812 72.84375 10.394531 68.503906 15.960938 L 67.582031 17.148438 L 66.066406 17.171875 C 58.550781 17.265625 54.140625 19.914062 52.378906 23.390625 C 51.402344 25.328125 51.203125 27.578125 51.738281 29.785156 C 52.300781 32.117188 53.652344 34.425781 55.730469 36.339844 C 69.097656 48.695312 77.125 32.59375 84.296875 44.367188 C 82.480469 46.140625 79.257812 48.25 75.757812 49.964844 C 73.742188 50.957031 71.59375 51.84375 69.542969 52.460938 C 70.40625 56.613281 70.859375 60.804688 70.90625 65.050781 C 70.941406 68.78125 70.660156 72.539062 70.066406 76.320312 C 77.789062 74.859375 85.371094 74.101562 92.816406 74.066406 C 99.90625 74.019531 106.859375 74.628906 113.660156 75.863281 C 112.878906 72.679688 112.519531 69.378906 112.542969 65.960938 Z M 112.53125 65.960938 " fill-opacity="1" fill-rule="nonzero"/></g><path fill="#ffffff" d="M 78.898438 34.460938 L 77.824219 32.957031 C 77.789062 32.910156 77.742188 32.839844 77.707031 32.792969 C 76.15625 30.566406 75.699219 30.144531 73.589844 28.230469 C 73.015625 27.71875 74.078125 28.59375 72.949219 27.71875 L 72.457031 26.984375 C 72.085938 26.621094 72.003906 26.609375 71.546875 26.097656 C 70.777344 25.234375 70.671875 25.105469 69.820312 24.535156 C 70.136719 25.675781 72.585938 30.039062 73.367188 30.785156 C 73.890625 32.140625 74.710938 33.503906 75.597656 34.578125 L 76.355469 36.246094 C 77.789062 36.269531 78.253906 35.90625 79.539062 35.757812 C 79.410156 34.882812 79.75 35.066406 78.898438 34.449219 Z M 78.898438 34.460938 " fill-opacity="1" fill-rule="evenodd"/><path fill="#ffffff" d="M 114.023438 37.449219 C 114.523438 36.816406 115.46875 35.78125 115.785156 35.066406 C 116.042969 34.882812 116.007812 35.078125 116.460938 34.507812 C 116.871094 33.996094 116.753906 34.054688 117.019531 33.398438 C 117.488281 33.179688 120.929688 28.535156 121.269531 27.613281 C 120.484375 28.046875 117.476562 30.191406 117.089844 30.878906 C 115.773438 31.730469 114.699219 32.488281 113.371094 33.714844 C 112.683594 34.355469 110.699219 36.28125 110.394531 37.449219 C 110.886719 37.691406 111.316406 37.832031 111.886719 38.066406 C 112.925781 38.488281 112.121094 38.371094 113.464844 38.519531 L 114.023438 37.460938 Z M 114.023438 37.449219 " fill-opacity="1" fill-rule="evenodd"/><path fill="#ffffff" d="M 88.589844 34.355469 C 89.375 34.507812 89.910156 34.777344 90.386719 34.101562 L 89.957031 31.953125 L 87.320312 24.125 C 86.761719 22.667969 84.929688 17.882812 83.667969 17.300781 L 86.117188 29.703125 L 87.34375 34.601562 C 87.449219 34.601562 87.972656 34.613281 88.066406 34.589844 C 88.765625 34.425781 88.160156 34.648438 88.601562 34.355469 Z M 88.589844 34.355469 " fill-opacity="1" fill-rule="evenodd"/><path fill="#ffffff" d="M 103.734375 32.59375 L 108.503906 18.792969 C 107.339844 19.167969 106.40625 20.941406 105.71875 22.085938 C 102.3125 27.753906 102.265625 28.675781 99.734375 34.589844 C 99.964844 35.113281 99.511719 35.042969 101.085938 35.289062 C 101.632812 35.371094 102.160156 35.429688 102.742188 35.523438 C 103.117188 34.425781 103.441406 33.328125 103.734375 32.582031 Z M 103.734375 32.59375 " fill-opacity="1" fill-rule="evenodd"/><g clip-path="url(#041c24c7b4)"><path fill="#ffffff" d="M 62.285156 90.691406 C 61.839844 94.890625 62.902344 98.671875 65.109375 100.605469 C 65.855469 101.261719 67.941406 102.449219 69.402344 102.90625 C 71.1875 103.476562 73.0625 103.746094 75.058594 103.699219 C 80.003906 103.605469 85.933594 101.503906 89.464844 98.472656 L 92.710938 95.371094 C 93.046875 95.648438 92.894531 95.484375 93.246094 95.90625 C 93.46875 96.164062 93.375 96.082031 93.585938 96.359375 C 96.769531 100.410156 104.808594 103.582031 110.347656 103.699219 C 114.105469 103.78125 117.523438 102.988281 120.21875 100.515625 C 122.738281 98.191406 123.648438 95.265625 123.15625 90.644531 C 122.515625 92.535156 122.726562 93.609375 121.324219 94.773438 C 115.65625 99.488281 106.007812 87.808594 100.839844 86.714844 C 95.71875 85.628906 93.328125 90.15625 92.710938 90.65625 C 91.519531 89.28125 91.332031 88.601562 89.710938 87.589844 C 86.410156 85.523438 83.457031 86.804688 80.460938 88.671875 C 79.039062 89.570312 78.371094 90.292969 77.042969 91.308594 C 75.816406 92.242188 74.6875 92.871094 73.414062 93.722656 C 72.339844 94.449219 70.578125 95.253906 69.191406 95.566406 C 67.324219 95.988281 65.292969 95.765625 64.117188 94.75 C 62.867188 93.679688 62.855469 92.523438 62.285156 90.691406 Z M 62.285156 90.691406 " fill-opacity="1" fill-rule="evenodd"/></g><g fill="#ffffff" fill-opacity="1"><g transform="translate(40.293519, 131.041235)"><g><path d="M 19.96875 -14.375 C 21.664062 -14.375 23.023438 -13.847656 24.046875 -12.796875 C 25.078125 -11.742188 25.59375 -10.160156 25.59375 -8.046875 L 25.59375 0 L 19.765625 0 L 19.765625 -7.046875 C 19.765625 -8.660156 19.238281 -9.46875 18.1875 -9.46875 C 17.632812 -9.46875 17.191406 -9.257812 16.859375 -8.84375 C 16.523438 -8.4375 16.359375 -7.785156 16.359375 -6.890625 L 16.359375 0 L 10.53125 0 L 10.53125 -7.046875 C 10.53125 -8.660156 10.003906 -9.46875 8.953125 -9.46875 C 8.398438 -9.46875 7.957031 -9.257812 7.625 -8.84375 C 7.289062 -8.4375 7.125 -7.785156 7.125 -6.890625 L 7.125 0 L 1.296875 0 L 1.296875 -14.109375 L 6.84375 -14.109375 L 6.84375 -12.796875 C 7.882812 -13.847656 9.210938 -14.375 10.828125 -14.375 C 11.773438 -14.375 12.628906 -14.195312 13.390625 -13.84375 C 14.148438 -13.488281 14.769531 -12.953125 15.25 -12.234375 C 15.8125 -12.921875 16.492188 -13.445312 17.296875 -13.8125 C 18.109375 -14.1875 19 -14.375 19.96875 -14.375 Z M 19.96875 -14.375 "/></g></g></g><g fill="#ffffff" fill-opacity="1"><g transform="translate(67.119393, 131.041235)"><g><path d="M 17 -14.109375 L 11.203125 0.28125 C 10.460938 2.125 9.539062 3.414062 8.4375 4.15625 C 7.332031 4.894531 5.984375 5.265625 4.390625 5.265625 C 3.597656 5.265625 2.800781 5.144531 2 4.90625 C 1.195312 4.675781 0.566406 4.375 0.109375 4 L 2.03125 0 C 2.320312 0.21875 2.648438 0.394531 3.015625 0.53125 C 3.390625 0.675781 3.753906 0.75 4.109375 0.75 C 4.742188 0.75 5.222656 0.5625 5.546875 0.1875 L -0.390625 -14.109375 L 5.59375 -14.109375 L 8.515625 -6.546875 L 11.484375 -14.109375 Z M 17 -14.109375 "/></g></g></g><g fill="#ffffff" fill-opacity="1"><g transform="translate(83.730803, 131.041235)"><g><path d="M 8.875 0.265625 C 7.269531 0.265625 5.835938 -0.0390625 4.578125 -0.65625 C 3.316406 -1.28125 2.328125 -2.148438 1.609375 -3.265625 C 0.898438 -4.390625 0.546875 -5.65625 0.546875 -7.0625 C 0.546875 -8.476562 0.898438 -9.738281 1.609375 -10.84375 C 2.328125 -11.957031 3.316406 -12.820312 4.578125 -13.4375 C 5.835938 -14.0625 7.269531 -14.375 8.875 -14.375 C 10.59375 -14.375 12.0625 -14.003906 13.28125 -13.265625 C 14.5 -12.523438 15.34375 -11.5 15.8125 -10.1875 L 11.296875 -7.96875 C 10.742188 -9.207031 9.925781 -9.828125 8.84375 -9.828125 C 8.15625 -9.828125 7.582031 -9.585938 7.125 -9.109375 C 6.675781 -8.628906 6.453125 -7.945312 6.453125 -7.0625 C 6.453125 -6.175781 6.675781 -5.488281 7.125 -5 C 7.582031 -4.519531 8.15625 -4.28125 8.84375 -4.28125 C 9.925781 -4.28125 10.742188 -4.898438 11.296875 -6.140625 L 15.8125 -3.921875 C 15.34375 -2.609375 14.5 -1.582031 13.28125 -0.84375 C 12.0625 -0.101562 10.59375 0.265625 8.875 0.265625 Z M 8.875 0.265625 "/></g></g></g><g fill="#ffffff" fill-opacity="1"><g transform="translate(99.594186, 131.041235)"><g><path d="M 11.09375 -14.375 C 12.832031 -14.375 14.226562 -13.847656 15.28125 -12.796875 C 16.34375 -11.742188 16.875 -10.160156 16.875 -8.046875 L 16.875 0 L 11.046875 0 L 11.046875 -7.046875 C 11.046875 -8.660156 10.46875 -9.46875 9.3125 -9.46875 C 8.65625 -9.46875 8.125 -9.238281 7.71875 -8.78125 C 7.320312 -8.320312 7.125 -7.601562 7.125 -6.625 L 7.125 0 L 1.296875 0 L 1.296875 -19.140625 L 7.125 -19.140625 L 7.125 -12.96875 C 8.207031 -13.90625 9.53125 -14.375 11.09375 -14.375 Z M 11.09375 -14.375 "/></g></g></g><g fill="#ffffff" fill-opacity="1"><g transform="translate(117.701649, 131.041235)"><g><path d="M 16.296875 -7.0625 C 16.296875 -6.976562 16.269531 -6.523438 16.21875 -5.703125 L 6.421875 -5.703125 C 6.628906 -5.171875 6.972656 -4.757812 7.453125 -4.46875 C 7.929688 -4.1875 8.535156 -4.046875 9.265625 -4.046875 C 9.878906 -4.046875 10.394531 -4.125 10.8125 -4.28125 C 11.238281 -4.4375 11.703125 -4.703125 12.203125 -5.078125 L 15.25 -2.015625 C 13.875 -0.492188 11.816406 0.265625 9.078125 0.265625 C 7.378906 0.265625 5.882812 -0.046875 4.59375 -0.671875 C 3.300781 -1.304688 2.300781 -2.179688 1.59375 -3.296875 C 0.894531 -4.421875 0.546875 -5.675781 0.546875 -7.0625 C 0.546875 -8.476562 0.890625 -9.738281 1.578125 -10.84375 C 2.273438 -11.957031 3.226562 -12.820312 4.4375 -13.4375 C 5.65625 -14.0625 7.019531 -14.375 8.53125 -14.375 C 9.96875 -14.375 11.273438 -14.085938 12.453125 -13.515625 C 13.628906 -12.953125 14.5625 -12.117188 15.25 -11.015625 C 15.945312 -9.910156 16.296875 -8.59375 16.296875 -7.0625 Z M 8.59375 -10.390625 C 7.988281 -10.390625 7.488281 -10.226562 7.09375 -9.90625 C 6.695312 -9.582031 6.4375 -9.117188 6.3125 -8.515625 L 10.859375 -8.515625 C 10.742188 -9.097656 10.488281 -9.554688 10.09375 -9.890625 C 9.695312 -10.222656 9.195312 -10.390625 8.59375 -10.390625 Z M 8.59375 -10.390625 "/></g></g></g><g fill="#ffffff" fill-opacity="1"><g transform="translate(134.545201, 131.041235)"><g><path d="M 7.578125 -13.34375 L 10.65625 -13.34375 L 10.65625 -9.078125 L 7.765625 -9.078125 L 7.765625 0 L 1.9375 0 L 1.9375 -9.078125 L 0 -9.078125 L 0 -13.34375 L 1.9375 -13.34375 L 1.9375 -13.421875 C 1.9375 -15.253906 2.484375 -16.707031 3.578125 -17.78125 C 4.679688 -18.863281 6.234375 -19.40625 8.234375 -19.40625 C 8.878906 -19.40625 9.507812 -19.34375 10.125 -19.21875 C 10.75 -19.09375 11.269531 -18.921875 11.6875 -18.703125 L 10.296875 -14.65625 C 9.816406 -14.875 9.378906 -14.984375 8.984375 -14.984375 C 8.546875 -14.984375 8.203125 -14.847656 7.953125 -14.578125 C 7.703125 -14.316406 7.578125 -13.910156 7.578125 -13.359375 Z M 7.578125 -13.34375 "/></g></g></g><g fill="#b29e84" fill-opacity="1"><g transform="translate(66.222627, 150.93443)"><g><path d="M 4.625 0 C 4.519531 0 4.445312 -0.0507812 4.40625 -0.15625 L 3.15625 -2.953125 C 3.132812 -2.992188 3.101562 -3.015625 3.0625 -3.015625 L 2.390625 -3.015625 C 2.347656 -3.015625 2.328125 -2.988281 2.328125 -2.9375 L 2.328125 -0.1875 C 2.328125 -0.132812 2.304688 -0.0859375 2.265625 -0.046875 C 2.234375 -0.015625 2.1875 0 2.125 0 L 0.71875 0 C 0.664062 0 0.617188 -0.015625 0.578125 -0.046875 C 0.546875 -0.0859375 0.53125 -0.132812 0.53125 -0.1875 L 0.53125 -7.359375 C 0.53125 -7.421875 0.546875 -7.46875 0.578125 -7.5 C 0.617188 -7.539062 0.664062 -7.5625 0.71875 -7.5625 L 3.859375 -7.5625 C 4.335938 -7.5625 4.753906 -7.460938 5.109375 -7.265625 C 5.472656 -7.066406 5.753906 -6.789062 5.953125 -6.4375 C 6.148438 -6.082031 6.25 -5.675781 6.25 -5.21875 C 6.25 -4.738281 6.128906 -4.320312 5.890625 -3.96875 C 5.660156 -3.613281 5.335938 -3.359375 4.921875 -3.203125 C 4.867188 -3.179688 4.851562 -3.144531 4.875 -3.09375 L 6.265625 -0.234375 L 6.28125 -0.140625 C 6.28125 -0.046875 6.222656 0 6.109375 0 Z M 2.390625 -6.03125 C 2.347656 -6.03125 2.328125 -6.003906 2.328125 -5.953125 L 2.328125 -4.453125 C 2.328125 -4.410156 2.347656 -4.390625 2.390625 -4.390625 L 3.578125 -4.390625 C 3.835938 -4.390625 4.050781 -4.460938 4.21875 -4.609375 C 4.382812 -4.753906 4.46875 -4.945312 4.46875 -5.1875 C 4.46875 -5.445312 4.382812 -5.648438 4.21875 -5.796875 C 4.050781 -5.953125 3.835938 -6.03125 3.578125 -6.03125 Z M 2.390625 -6.03125 "/></g></g></g><g fill="#b29e84" fill-opacity="1"><g transform="translate(74.84973, 150.93443)"><g><path d="M 5.890625 -6.21875 C 5.890625 -6.15625 5.867188 -6.109375 5.828125 -6.078125 C 5.796875 -6.046875 5.753906 -6.03125 5.703125 -6.03125 L 2.390625 -6.03125 C 2.347656 -6.03125 2.328125 -6.003906 2.328125 -5.953125 L 2.328125 -4.671875 C 2.328125 -4.617188 2.347656 -4.59375 2.390625 -4.59375 L 4.484375 -4.59375 C 4.535156 -4.59375 4.578125 -4.570312 4.609375 -4.53125 C 4.648438 -4.5 4.671875 -4.453125 4.671875 -4.390625 L 4.671875 -3.265625 C 4.671875 -3.203125 4.648438 -3.148438 4.609375 -3.109375 C 4.578125 -3.078125 4.535156 -3.0625 4.484375 -3.0625 L 2.390625 -3.0625 C 2.347656 -3.0625 2.328125 -3.035156 2.328125 -2.984375 L 2.328125 -1.609375 C 2.328125 -1.554688 2.347656 -1.53125 2.390625 -1.53125 L 5.703125 -1.53125 C 5.753906 -1.53125 5.796875 -1.507812 5.828125 -1.46875 C 5.867188 -1.4375 5.890625 -1.394531 5.890625 -1.34375 L 5.890625 -0.1875 C 5.890625 -0.132812 5.867188 -0.0859375 5.828125 -0.046875 C 5.796875 -0.015625 5.753906 0 5.703125 0 L 0.71875 0 C 0.664062 0 0.617188 -0.015625 0.578125 -0.046875 C 0.546875 -0.0859375 0.53125 -0.132812 0.53125 -0.1875 L 0.53125 -7.359375 C 0.53125 -7.421875 0.546875 -7.46875 0.578125 -7.5 C 0.617188 -7.539062 0.664062 -7.5625 0.71875 -7.5625 L 5.703125 -7.5625 C 5.753906 -7.5625 5.796875 -7.539062 5.828125 -7.5 C 5.867188 -7.46875 5.890625 -7.421875 5.890625 -7.359375 Z M 5.890625 -6.21875 "/></g></g></g><g fill="#b29e84" fill-opacity="1"><g transform="translate(83.077925, 150.93443)"><g><path d="M 3.296875 0.09375 C 2.722656 0.09375 2.21875 -0.015625 1.78125 -0.234375 C 1.351562 -0.460938 1.015625 -0.78125 0.765625 -1.1875 C 0.523438 -1.601562 0.40625 -2.082031 0.40625 -2.625 L 0.40625 -4.953125 C 0.40625 -5.484375 0.523438 -5.953125 0.765625 -6.359375 C 1.015625 -6.765625 1.351562 -7.078125 1.78125 -7.296875 C 2.21875 -7.523438 2.722656 -7.640625 3.296875 -7.640625 C 3.878906 -7.640625 4.382812 -7.53125 4.8125 -7.3125 C 5.25 -7.101562 5.585938 -6.804688 5.828125 -6.421875 C 6.078125 -6.046875 6.203125 -5.601562 6.203125 -5.09375 C 6.203125 -5.03125 6.140625 -4.992188 6.015625 -4.984375 L 4.609375 -4.875 L 4.5625 -4.875 C 4.457031 -4.875 4.40625 -4.894531 4.40625 -4.9375 L 4.40625 -5 C 4.40625 -5.332031 4.300781 -5.597656 4.09375 -5.796875 C 3.894531 -6.003906 3.628906 -6.109375 3.296875 -6.109375 C 2.972656 -6.109375 2.707031 -6.003906 2.5 -5.796875 C 2.300781 -5.597656 2.203125 -5.332031 2.203125 -5 L 2.203125 -2.546875 C 2.203125 -2.210938 2.300781 -1.945312 2.5 -1.75 C 2.707031 -1.550781 2.972656 -1.453125 3.296875 -1.453125 C 3.628906 -1.453125 3.894531 -1.550781 4.09375 -1.75 C 4.300781 -1.945312 4.40625 -2.210938 4.40625 -2.546875 C 4.40625 -2.585938 4.421875 -2.617188 4.453125 -2.640625 C 4.484375 -2.660156 4.53125 -2.671875 4.59375 -2.671875 L 6.015625 -2.59375 C 6.140625 -2.570312 6.203125 -2.550781 6.203125 -2.53125 L 6.203125 -2.484375 C 6.203125 -1.972656 6.078125 -1.519531 5.828125 -1.125 C 5.585938 -0.738281 5.25 -0.4375 4.8125 -0.21875 C 4.382812 -0.0078125 3.878906 0.09375 3.296875 0.09375 Z M 3.296875 0.09375 "/></g></g></g><g fill="#b29e84" fill-opacity="1"><g transform="translate(91.651121, 150.93443)"><g><path d="M 0.71875 0 C 0.664062 0 0.617188 -0.015625 0.578125 -0.046875 C 0.546875 -0.0859375 0.53125 -0.132812 0.53125 -0.1875 L 0.53125 -7.359375 C 0.53125 -7.421875 0.546875 -7.46875 0.578125 -7.5 C 0.617188 -7.539062 0.664062 -7.5625 0.71875 -7.5625 L 2.125 -7.5625 C 2.1875 -7.5625 2.234375 -7.539062 2.265625 -7.5 C 2.304688 -7.46875 2.328125 -7.421875 2.328125 -7.359375 L 2.328125 -0.1875 C 2.328125 -0.132812 2.304688 -0.0859375 2.265625 -0.046875 C 2.234375 -0.015625 2.1875 0 2.125 0 Z M 0.71875 0 "/></g></g></g><g fill="#b29e84" fill-opacity="1"><g transform="translate(96.515496, 150.93443)"><g><path d="M 3.75 -7.5625 C 4.238281 -7.5625 4.671875 -7.457031 5.046875 -7.25 C 5.421875 -7.050781 5.710938 -6.769531 5.921875 -6.40625 C 6.128906 -6.039062 6.234375 -5.625 6.234375 -5.15625 C 6.234375 -4.6875 6.125 -4.269531 5.90625 -3.90625 C 5.695312 -3.550781 5.394531 -3.273438 5 -3.078125 C 4.613281 -2.878906 4.164062 -2.78125 3.65625 -2.78125 L 2.359375 -2.78125 C 2.304688 -2.78125 2.28125 -2.753906 2.28125 -2.703125 L 2.28125 -0.1875 C 2.28125 -0.132812 2.265625 -0.0859375 2.234375 -0.046875 C 2.203125 -0.015625 2.15625 0 2.09375 0 L 0.6875 0 C 0.632812 0 0.585938 -0.015625 0.546875 -0.046875 C 0.515625 -0.0859375 0.5 -0.132812 0.5 -0.1875 L 0.5 -7.359375 C 0.5 -7.421875 0.515625 -7.46875 0.546875 -7.5 C 0.585938 -7.539062 0.632812 -7.5625 0.6875 -7.5625 Z M 3.453125 -4.203125 C 3.742188 -4.203125 3.984375 -4.285156 4.171875 -4.453125 C 4.359375 -4.617188 4.453125 -4.835938 4.453125 -5.109375 C 4.453125 -5.378906 4.359375 -5.597656 4.171875 -5.765625 C 3.984375 -5.941406 3.742188 -6.03125 3.453125 -6.03125 L 2.359375 -6.03125 C 2.304688 -6.03125 2.28125 -6.003906 2.28125 -5.953125 L 2.28125 -4.28125 C 2.28125 -4.226562 2.304688 -4.203125 2.359375 -4.203125 Z M 3.453125 -4.203125 "/></g></g></g><g fill="#b29e84" fill-opacity="1"><g transform="translate(104.970096, 150.93443)"><g><path d="M 5.890625 -6.21875 C 5.890625 -6.15625 5.867188 -6.109375 5.828125 -6.078125 C 5.796875 -6.046875 5.753906 -6.03125 5.703125 -6.03125 L 2.390625 -6.03125 C 2.347656 -6.03125 2.328125 -6.003906 2.328125 -5.953125 L 2.328125 -4.671875 C 2.328125 -4.617188 2.347656 -4.59375 2.390625 -4.59375 L 4.484375 -4.59375 C 4.535156 -4.59375 4.578125 -4.570312 4.609375 -4.53125 C 4.648438 -4.5 4.671875 -4.453125 4.671875 -4.390625 L 4.671875 -3.265625 C 4.671875 -3.203125 4.648438 -3.148438 4.609375 -3.109375 C 4.578125 -3.078125 4.535156 -3.0625 4.484375 -3.0625 L 2.390625 -3.0625 C 2.347656 -3.0625 2.328125 -3.035156 2.328125 -2.984375 L 2.328125 -1.609375 C 2.328125 -1.554688 2.347656 -1.53125 2.390625 -1.53125 L 5.703125 -1.53125 C 5.753906 -1.53125 5.796875 -1.507812 5.828125 -1.46875 C 5.867188 -1.4375 5.890625 -1.394531 5.890625 -1.34375 L 5.890625 -0.1875 C 5.890625 -0.132812 5.867188 -0.0859375 5.828125 -0.046875 C 5.796875 -0.015625 5.753906 0 5.703125 0 L 0.71875 0 C 0.664062 0 0.617188 -0.015625 0.578125 -0.046875 C 0.546875 -0.0859375 0.53125 -0.132812 0.53125 -0.1875 L 0.53125 -7.359375 C 0.53125 -7.421875 0.546875 -7.46875 0.578125 -7.5 C 0.617188 -7.539062 0.664062 -7.5625 0.71875 -7.5625 L 5.703125 -7.5625 C 5.753906 -7.5625 5.796875 -7.539062 5.828125 -7.5 C 5.867188 -7.46875 5.890625 -7.421875 5.890625 -7.359375 Z M 5.890625 -6.21875 "/></g></g></g><g fill="#b29e84" fill-opacity="1"><g transform="translate(113.198293, 150.93443)"><g><path d="M 3.234375 0.09375 C 2.648438 0.09375 2.140625 0 1.703125 -0.1875 C 1.273438 -0.382812 0.941406 -0.660156 0.703125 -1.015625 C 0.460938 -1.378906 0.34375 -1.789062 0.34375 -2.25 L 0.34375 -2.390625 C 0.34375 -2.453125 0.359375 -2.5 0.390625 -2.53125 C 0.429688 -2.570312 0.484375 -2.59375 0.546875 -2.59375 L 1.90625 -2.59375 C 1.96875 -2.59375 2.015625 -2.578125 2.046875 -2.546875 C 2.085938 -2.523438 2.109375 -2.5 2.109375 -2.46875 L 2.109375 -2.328125 C 2.109375 -2.097656 2.222656 -1.894531 2.453125 -1.71875 C 2.691406 -1.539062 2.992188 -1.453125 3.359375 -1.453125 C 3.671875 -1.453125 3.898438 -1.519531 4.046875 -1.65625 C 4.203125 -1.789062 4.28125 -1.945312 4.28125 -2.125 C 4.28125 -2.320312 4.191406 -2.472656 4.015625 -2.578125 C 3.835938 -2.691406 3.523438 -2.820312 3.078125 -2.96875 L 2.84375 -3.046875 C 2.382812 -3.191406 1.976562 -3.351562 1.625 -3.53125 C 1.28125 -3.707031 0.984375 -3.953125 0.734375 -4.265625 C 0.492188 -4.578125 0.375 -4.96875 0.375 -5.4375 C 0.375 -5.875 0.488281 -6.257812 0.71875 -6.59375 C 0.957031 -6.9375 1.285156 -7.195312 1.703125 -7.375 C 2.117188 -7.550781 2.585938 -7.640625 3.109375 -7.640625 C 3.660156 -7.640625 4.15625 -7.539062 4.59375 -7.34375 C 5.039062 -7.144531 5.390625 -6.859375 5.640625 -6.484375 C 5.898438 -6.117188 6.03125 -5.695312 6.03125 -5.21875 L 6.03125 -5.140625 C 6.03125 -5.078125 6.007812 -5.023438 5.96875 -4.984375 C 5.9375 -4.953125 5.890625 -4.9375 5.828125 -4.9375 L 4.453125 -4.9375 C 4.398438 -4.9375 4.351562 -4.945312 4.3125 -4.96875 C 4.28125 -4.988281 4.265625 -5.015625 4.265625 -5.046875 L 4.265625 -5.15625 C 4.265625 -5.40625 4.148438 -5.625 3.921875 -5.8125 C 3.703125 -6.007812 3.40625 -6.109375 3.03125 -6.109375 C 2.75 -6.109375 2.53125 -6.050781 2.375 -5.9375 C 2.21875 -5.820312 2.140625 -5.660156 2.140625 -5.453125 C 2.140625 -5.296875 2.1875 -5.164062 2.28125 -5.0625 C 2.382812 -4.957031 2.539062 -4.859375 2.75 -4.765625 C 2.96875 -4.671875 3.296875 -4.554688 3.734375 -4.421875 C 4.234375 -4.242188 4.625 -4.085938 4.90625 -3.953125 C 5.1875 -3.828125 5.453125 -3.617188 5.703125 -3.328125 C 5.953125 -3.035156 6.078125 -2.65625 6.078125 -2.1875 C 6.078125 -1.726562 5.957031 -1.328125 5.71875 -0.984375 C 5.476562 -0.640625 5.144531 -0.375 4.71875 -0.1875 C 4.289062 0 3.796875 0.09375 3.234375 0.09375 Z M 3.234375 0.09375 "/></g></g></g></svg>